<svg width="56" height="57" viewBox="0 0 56 57" fill="none" xmlns="http://www.w3.org/2000/svg">
<path d="M51.7651 25.1736C52.1787 25.1739 52.5883 25.2546 52.9704 25.4113C53.3524 25.568 53.6995 25.7975 53.9918 26.0867C54.2841 26.3759 54.5159 26.7192 54.674 27.0969C54.832 27.4746 54.9132 27.8794 54.913 28.2882C54.9127 28.6969 54.8309 29.1016 54.6724 29.4791C54.5138 29.8566 54.2816 30.1996 53.9889 30.4884C53.6962 30.7772 53.3488 31.0063 52.9665 31.1625C52.5842 31.3186 52.1745 31.3989 51.7609 31.3986L51.7651 25.1736ZM47.017 28.284V25.1715L47.0191 25.1715L47.017 28.284ZM25.9393 31.3965C25.1038 31.3965 24.3026 31.0686 23.7119 30.4849C23.1211 29.9012 22.7893 29.1095 22.7893 28.284C22.7893 27.4585 23.1211 26.6668 23.7119 26.0831C24.3026 25.4994 25.1038 25.1715 25.9393 25.1715V31.3965ZM25.9004 25.1715C26.7358 25.1715 27.5371 25.4994 28.1278 26.0831C28.7185 26.6668 29.0504 27.4585 29.0504 28.284C29.0504 29.1095 28.7185 29.9012 28.1278 30.4849C27.5371 31.0686 26.7358 31.3965 25.9004 31.3965V25.1715ZM3.15006 31.3965C2.31463 31.3965 1.51341 31.0686 0.922672 30.4849C0.331933 29.9012 6.10352e-05 29.1095 6.10352e-05 28.284C6.10352e-05 27.4585 0.331933 26.6668 0.922672 26.0831C1.51341 25.4994 2.31463 25.1715 3.15006 25.1715V31.3965ZM51.7609 31.3986L51.6821 31.3986L51.6853 25.1736L51.7651 25.1736L51.7609 31.3986ZM51.6821 31.3986L50.7476 31.3986L50.7529 25.1736L51.6853 25.1736L51.6821 31.3986ZM50.7476 31.3986L49.8152 31.3986L49.8194 25.1736L50.7529 25.1736L50.7476 31.3986ZM49.8152 31.3986L48.8807 31.3975L48.886 25.1725L49.8194 25.1736L49.8152 31.3986ZM48.8807 31.3975L47.9483 31.3965L47.9525 25.1715L48.886 25.1725L48.8807 31.3975ZM47.9483 31.3965L47.0149 31.3965L47.0191 25.1715L47.9525 25.1715L47.9483 31.3965ZM47.017 31.3965L25.9393 31.3965V25.1715L47.017 25.1715V31.3965ZM25.9004 31.3965L3.15006 31.3965V25.1715L25.9004 25.1715V31.3965Z" fill="#AE131A"/>
<path d="M29.2846 2.5L51.5194 24.4711C52.0313 24.9769 52.4374 25.5774 52.7145 26.2383C52.9916 26.8992 53.1342 27.6075 53.1342 28.3229C53.1342 29.0382 52.9916 29.7465 52.7145 30.4074C52.4374 31.0683 52.0313 31.6688 51.5194 32.1746L29.2835 54.1447" stroke="#AE131A" stroke-width="5" stroke-linecap="round" stroke-linejoin="round"/>
</svg>
