<svg width="431" height="233" viewBox="0 0 431 233" fill="none" xmlns="http://www.w3.org/2000/svg">
<g clip-path="url(#clip0_25_8)">
<path d="M302.564 58.7137C308.101 52.7272 317.565 52.7294 323.099 58.7185C328.051 64.0774 328.049 72.3429 323.096 77.7004L228.125 180.42C226.462 182.228 224.486 183.664 222.308 184.643C220.131 185.623 217.796 186.127 215.437 186.127C213.079 186.127 210.744 185.623 208.566 184.643C206.389 183.664 204.412 182.228 202.75 180.42L107.728 77.6999C102.774 72.3438 102.773 64.0774 107.728 58.7209C113.259 52.7399 122.714 52.7395 128.246 58.7199L203.664 140.247C209.998 147.094 220.822 147.094 227.155 140.246L302.564 58.7137Z" fill="#FCF9F8"/>
</g>
<defs>
<clipPath id="clip0_25_8">
<rect width="233" height="431" fill="white" transform="translate(431 1.88396e-05) rotate(90)"/>
</clipPath>
</defs>
</svg>
