<svg width="161" height="161" viewBox="0 0 161 161" fill="none" xmlns="http://www.w3.org/2000/svg">
<path d="M155.23 157.771C151.717 161.309 145.997 161.317 142.475 157.789L86.5952 101.821C83.0794 98.3001 77.3732 98.3001 73.8573 101.821L17.9552 157.811C14.4413 161.331 8.73896 161.333 5.22229 157.816L2.63606 155.23C-0.880615 151.714 -0.878379 146.011 2.64105 142.497L58.631 86.5952C62.1524 83.0794 62.1524 77.3732 58.631 73.8573L2.64105 17.9552C-0.878378 14.4413 -0.880619 8.73897 2.63605 5.2223L5.22229 2.63606C8.73896 -0.880615 14.4413 -0.878379 17.9552 2.64105L73.8623 58.636C77.3762 62.1555 83.0785 62.1577 86.5952 58.641L142.497 2.73898C146.012 -0.775743 151.711 -0.775748 155.225 2.73897L157.714 5.2273C161.228 8.74202 161.228 14.4405 157.714 17.9552L101.806 73.8623C98.2918 77.377 98.2917 83.0755 101.806 86.5902L157.736 142.52C161.242 146.026 161.252 151.707 157.758 155.225L155.23 157.771Z" fill="#8F4E00"/>
</svg>
