<svg width="233" height="431" viewBox="0 0 233 431" fill="none" xmlns="http://www.w3.org/2000/svg">
<path d="M58.7137 128.436C52.7272 122.899 52.7294 113.435 58.7185 107.901C64.0774 102.949 72.3429 102.95 77.7003 107.904L180.42 202.875C182.228 204.538 183.664 206.514 184.643 208.692C185.623 210.869 186.127 213.204 186.127 215.563C186.127 217.921 185.623 220.256 184.643 222.434C183.664 224.611 182.228 226.588 180.42 228.25L77.6999 323.272C72.3438 328.226 64.0774 328.227 58.7208 323.272C52.7399 317.741 52.7394 308.286 58.7199 302.754L140.247 227.336C147.094 221.002 147.094 210.178 140.246 203.845L58.7137 128.436Z" fill="#AE131A"/>
</svg>
